<svg id="Layer_1" data-name="Layer 1" xmlns="http://www.w3.org/2000/svg" width="374px" height="70px" viewBox="0 0 2183.64 332.86"><defs><style>.cls-1{fill:#fff;}.cls-2{fill:#d9d8d6;}.cls-3{fill:#002d74;}.cls-4{fill:#1f295c;}</style></defs><path class="cls-1" d="M647.13,338.7V296.61a38.63,38.63,0,0,0-.49-7.34,8,8,0,0,0-1.57-4.23,14.85,14.85,0,0,0-3.57-3.36v-.24h23.91v.24a7.51,7.51,0,0,0-4.69,5.05,40.91,40.91,0,0,0-.94,10.12v36.71q0,11.76,5.14,17.38a18.84,18.84,0,0,0,5.86,4.28,19.14,19.14,0,0,0,7.62,1.53,28,28,0,0,0,10.58-2,19.3,19.3,0,0,0,8.1-5.9,14.31,14.31,0,0,0,3.08-9.15V295.63q0-11.92-5.33-13.95v-.24h23.55v.24q-5.57,1.85-5.57,12.92v56.21q0,10.77,5.57,12.67V364H700.16v-8.26a25,25,0,0,1-10.41,7.51,40.58,40.58,0,0,1-15.5,2.71,27.93,27.93,0,0,1-7.51-1,22.75,22.75,0,0,1-3.39-1.1,30.65,30.65,0,0,1-3.27-1.59,23.34,23.34,0,0,1-9.44-9.18A28.19,28.19,0,0,1,647.13,338.7Z" transform="translate(-32.03 -47.8)"/><path class="cls-1" d="M803.07,348.79v-52.9c0-4.45-.49-7.53-1.48-9.22a16.51,16.51,0,0,0-5.05-5v-.24h18.22q0,1.11,3.81,5.93l45.29,57.82V296.13a28.11,28.11,0,0,0-1.12-8.63c-.75-2.29-2.57-4.23-5.48-5.82v-.24h21.86v.24a17.94,17.94,0,0,0-3.79,3,10.53,10.53,0,0,0-2,4.2,30.47,30.47,0,0,0-.78,7.78l.24,71.25a24.41,24.41,0,0,1-9.45-4.63,52.52,52.52,0,0,1-6.85-7.22L812,299v49.76a29.06,29.06,0,0,0,.73,7.59,10.1,10.1,0,0,0,1.94,3.83,23.37,23.37,0,0,0,3.87,3.27V364h-22v-.49a10.63,10.63,0,0,0,5.14-5.26l.49-1.66.6-2.87a23.06,23.06,0,0,0,.27-2.88C803.06,350,803.07,349.28,803.07,348.79Z" transform="translate(-32.03 -47.8)"/><path class="cls-1" d="M961.2,346.28V298.15l-.18-6.67-.18-2.33-.48-2.27a7.27,7.27,0,0,0-4.48-5.2v-.24h23.55v.24a8.5,8.5,0,0,0-3.48,3.06,12.12,12.12,0,0,0-1.49,4.9,77.31,77.31,0,0,0-.36,8.51v48.13a89.77,89.77,0,0,0,.36,9.49,11.57,11.57,0,0,0,1.42,4.74,8.75,8.75,0,0,0,3.55,3V364H955.88v-.49a6.87,6.87,0,0,0,4.35-5.14A53.88,53.88,0,0,0,961.2,346.28Z" transform="translate(-32.03 -47.8)"/><path class="cls-1" d="M1090.82,365.31a35.77,35.77,0,0,1-7.37-6.08c-1.13-1.44-2.56-4.32-4.29-8.67l-20.3-55.91a44.34,44.34,0,0,0-3.33-7.75,15.28,15.28,0,0,0-4.55-5v-.49h18.28a3.61,3.61,0,0,1-.3,1.66,44.94,44.94,0,0,0,2.12,8.43l20.82,57.75,19.24-50.84a26.39,26.39,0,0,0,2.14-9.46c0-3.64-1.46-6-4.36-7.05v-.49h18.46l-32.75,86.27Z" transform="translate(-32.03 -47.8)"/><path class="cls-1" d="M1207.72,351.42v-55a41.37,41.37,0,0,0-.91-9.56,7.17,7.17,0,0,0-4.66-5.14v-.24h39.71a4.92,4.92,0,0,1,1.94.3,16.4,16.4,0,0,0,3.87-1h.25v14.63h-.25a13.58,13.58,0,0,0-6.11-3.78,31.42,31.42,0,0,0-9.14-1.12h-5.51l-3.21.18-2,.25-1.45.25v23.55h11.68a13,13,0,0,1,3,.24,18.61,18.61,0,0,0,5.57-1.1h.36v13.4h-.36c-1.45-2.44-4.93-3.67-10.41-3.67h-9.81v29.86l9.68.86,7.33.61h1.09l1.39.24a26,26,0,0,0,10.11-2,37.55,37.55,0,0,0,9.21-5.7h.24L1253.73,364h-51.58v-.49Q1207.71,361.47,1207.72,351.42Z" transform="translate(-32.03 -47.8)"/><path class="cls-1" d="M1341.14,346.29v-54l-.24-3.13a10,10,0,0,0-1.32-4,8.19,8.19,0,0,0-4-3.28l.25-.48h29q13.08,0,19.5,6.31a21.53,21.53,0,0,1,6.42,16.05,19.87,19.87,0,0,1-5.3,11.55q-4.76,5.36-14.26,8.49l18.95,24a46.27,46.27,0,0,0,6.66,7A105.58,105.58,0,0,0,1409,364h-12.65a15.4,15.4,0,0,1-7.79-1.8,21.17,21.17,0,0,1-6-5.6l-14.48-18-11.41-17.48,2.6-.42a14.75,14.75,0,0,0,2.48-.62l2.54-.85,2.6-1.11a20.75,20.75,0,0,0,8.2-6.28,15,15,0,0,0,3.17-9.53,12.1,12.1,0,0,0-1.27-5.72,11.66,11.66,0,0,0-3.87-4.2,20,20,0,0,0-11.38-3.12,31.26,31.26,0,0,0-3.61.24,37,37,0,0,0-4.32.8v56.27a85.26,85.26,0,0,0,.36,9,12.1,12.1,0,0,0,1.42,4.9,10.21,10.21,0,0,0,3.66,3.28V364h-23.42v-.49a7.3,7.3,0,0,0,4.38-5.29A54.24,54.24,0,0,0,1341.14,346.29Z" transform="translate(-32.03 -47.8)"/><path class="cls-1" d="M1470.39,301.06a19.88,19.88,0,0,1,1.12-6.67,14.6,14.6,0,0,1,3.36-5.44,25,25,0,0,1,11.54-7.18,51.65,51.65,0,0,1,15.71-2.29,67.18,67.18,0,0,1,18,2.75v13.95a29.06,29.06,0,0,0-9.21-5.57,33.14,33.14,0,0,0-5.26-1.53,27.78,27.78,0,0,0-5.39-.55,21,21,0,0,0-10,2.23,9.5,9.5,0,0,0-5.18,6.15,11.55,11.55,0,0,0-.36,2.75,10.43,10.43,0,0,0,4.42,8.8,71.83,71.83,0,0,0,12.23,7l10.41,5.14a35.17,35.17,0,0,1,10.72,7.76,16.82,16.82,0,0,1,4.78,12.05,19.61,19.61,0,0,1-1.27,6.9,17.2,17.2,0,0,1-.67,1.63,13.65,13.65,0,0,1-.9,1.55,30,30,0,0,1-2.18,3.24,29,29,0,0,1-12.23,9,45.53,45.53,0,0,1-17.62,3.27c-1.7,0-3.29-.06-4.78-.18s-3.15-.35-5-.67a76.31,76.31,0,0,1-10.83-2.69l-3.33-15.85A39.51,39.51,0,0,0,1481,354l6.9,2.06,3.15.49,3.39.18a25.35,25.35,0,0,0,6.66-.79,33.68,33.68,0,0,0,6.35-2.57,10.17,10.17,0,0,0,5.82-9.54q0-8.61-12.42-14.36l-14.22-6.67a35.26,35.26,0,0,1-7.42-4.52,25.5,25.5,0,0,1-6.14-7.31A19.25,19.25,0,0,1,1470.39,301.06Z" transform="translate(-32.03 -47.8)"/><path class="cls-1" d="M1610.84,346.28V298.15l-.18-6.67-.18-2.33-.49-2.27a7.23,7.23,0,0,0-4.47-5.2v-.24h23.55v.24a8.6,8.6,0,0,0-3.49,3.06,12.28,12.28,0,0,0-1.48,4.9,77.31,77.31,0,0,0-.36,8.51v48.13a89.77,89.77,0,0,0,.36,9.49,11.57,11.57,0,0,0,1.42,4.74,8.75,8.75,0,0,0,3.55,3V364h-23.55v-.49a6.87,6.87,0,0,0,4.35-5.14A53.88,53.88,0,0,0,1610.84,346.28Z" transform="translate(-32.03 -47.8)"/><path class="cls-1" d="M1724.23,351.67V290.49h-10.41q-10.48,0-15.32,4.83H1698l4.35-14.8h.49a12.87,12.87,0,0,0,5.63.92H1756q4.85,0,6.42-.92h.55l-3.88,14.8h-.48a5.7,5.7,0,0,0-3.57-3.85,13.44,13.44,0,0,0-3-.73l-3.88-.25H1736.7v60.69a18.18,18.18,0,0,0,1.15,6.64q1.15,3,5.45,5.66V364h-24.7v-.49Q1724.23,361.65,1724.23,351.67Z" transform="translate(-32.03 -47.8)"/><path class="cls-1" d="M1857.6,351.43V327.75L1834.29,290a18,18,0,0,0-3.69-4.5,19,19,0,0,0-5.27-4.06H1837a16.26,16.26,0,0,1,4.91.58,9.42,9.42,0,0,1,2.9,1.51,12,12,0,0,1,1.58,2.1l1.39,2.66,18,29.46,15.8-24.09a16.81,16.81,0,0,0,1.46-2.76l.37-1.42.12-1.59c0-2.79-1.48-4.86-4.42-6.21v-.24h21.79l-30.51,46.31V348.8a47.61,47.61,0,0,0,.21,4.8,15.36,15.36,0,0,0,.82,3.7c.61,2,2.38,4.06,5.33,6.18V364h-24.22v-.49a8.34,8.34,0,0,0,4.18-4.71A25,25,0,0,0,1857.6,351.43Z" transform="translate(-32.03 -47.8)"/><path class="cls-1" d="M389.32,200V108q0-11.61-2.58-16T378,83.33V82.9h31.67q0,1.93,6.63,10.32L495,193.7V108.45a49,49,0,0,0-1.95-15q-2-6-9.52-10.11V82.9h38v.43a31.28,31.28,0,0,0-6.57,5.17,18.18,18.18,0,0,0-3.53,7.3A52.67,52.67,0,0,0,510,109.33l.43,123.82Q500,230.27,494,225.1a92.52,92.52,0,0,1-11.91-12.54l-77.19-99.07V200q0,8.94,1.26,13.19a17.33,17.33,0,0,0,3.37,6.65,40.19,40.19,0,0,0,6.73,5.69v.85H378v-.85a18.54,18.54,0,0,0,8.95-9.15l.84-2.87,1.05-5a39,39,0,0,0,.47-5C389.3,202,389.32,200.81,389.32,200Z" transform="translate(-32.03 -47.8)"/><path class="cls-1" d="M522.52,156.06a75.88,75.88,0,0,1,6.26-30.84,73.88,73.88,0,0,1,17-24.35,82.77,82.77,0,0,1,24.94-16.05,109.62,109.62,0,0,1,14.41-4.15A72.57,72.57,0,0,1,600.59,79,92.31,92.31,0,0,1,631,84.07a75,75,0,0,1,13.41,6,69,69,0,0,1,11.94,8.61,70.18,70.18,0,0,1,17.15,23,86.26,86.26,0,0,1,5,14.57,61.39,61.39,0,0,1,2,15.09,79.39,79.39,0,0,1-9.36,38,76.12,76.12,0,0,1-26.94,28.71,84.81,84.81,0,0,1-18.94,8.62,69.6,69.6,0,0,1-21,3.19q-24.4,0-42.82-10.21a78,78,0,0,1-29-27.33,100,100,0,0,1-7.78-17.33,63.29,63.29,0,0,1-2.53-18l.42-.43Zm24.62-.85v3.45a28.74,28.74,0,0,0,.32,3.73c.21,1.52.42,2.8.63,3.82s.65,2.63,1.31,4.79,1.49,4.41,2.48,6.75a49.82,49.82,0,0,0,3.57,6.91,59.12,59.12,0,0,0,20.73,21.11,54.49,54.49,0,0,0,28.93,8l6.11-.32a23.44,23.44,0,0,0,2.78-.43c1-.21,2-.46,3-.74a55.92,55.92,0,0,0,11-4.47,47.44,47.44,0,0,0,16-13.29,54.31,54.31,0,0,0,9.11-18,80.12,80.12,0,0,0,2.21-9.94,69.16,69.16,0,0,0,.73-10.37l-.42-7.12a65.83,65.83,0,0,0-8.26-26.64,55.84,55.84,0,0,0-19-20.15q-12-7.65-27.83-7.65h-3.31a35.23,35.23,0,0,0-4.16.37,43.19,43.19,0,0,0-6.94,1.65,59.42,59.42,0,0,0-13.26,5.74q-12,7-18.89,20.68T547.14,155.21Z" transform="translate(-32.03 -47.8)"/><path class="cls-1" d="M695,195.61V101.86l-.42-5.45a17.46,17.46,0,0,0-2.29-7q-2-3.48-7-5.69l.42-.86h50.4q22.73,0,33.88,11t11.15,27.9q-.95,10.76-9.2,20.07t-24.78,14.75l32.93,41.68a80.35,80.35,0,0,0,11.57,12.12,180.94,180.94,0,0,0,21.26,16h-22q-8.1,0-13.52-3.13a36.86,36.86,0,0,1-10.47-9.73l-25.17-31.34L722,151.77l4.51-.74a25.77,25.77,0,0,0,4.31-1.06l4.42-1.5,4.52-1.91A36.12,36.12,0,0,0,754,135.64a26.13,26.13,0,0,0,5.52-16.55,21.21,21.21,0,0,0-2.21-10,20.37,20.37,0,0,0-6.73-7.29q-8.12-5.43-19.79-5.43a53.32,53.32,0,0,0-6.25.42A67.85,67.85,0,0,0,717,98.22V196a147.22,147.22,0,0,0,.63,15.7,21.19,21.19,0,0,0,2.48,8.51,17.6,17.6,0,0,0,6.36,5.7v.42H685.71v-.85a12.68,12.68,0,0,0,7.63-9.2Q695,209.66,695,195.61Z" transform="translate(-32.03 -47.8)"/><path class="cls-1" d="M839.21,205V98.64h-18.1q-18.2,0-26.62,8.4h-.84l7.58-25.73h.84q3,1.59,9.78,1.59h82.49q8.42,0,11.15-1.59h1L899.71,107h-.85a9.88,9.88,0,0,0-6.2-6.7,24.34,24.34,0,0,0-5.16-1.27l-6.73-.43H860.88V204.1a31.81,31.81,0,0,0,2,11.55q2,5.16,9.47,9.84v.85H829.42v-.85Q839.22,222.3,839.21,205Z" transform="translate(-32.03 -47.8)"/><path class="cls-1" d="M926,205v-100a63.56,63.56,0,0,0-.42-7.61,28.58,28.58,0,0,0-1.37-6.11q-1.58-5.33-7.47-7.88V82.9h40.93v.43a13.92,13.92,0,0,0-7.52,9.06q-1.74,6.18-1.74,17.79v30.57h77.75v-32.7a64.69,64.69,0,0,0-1.63-15.77,12.61,12.61,0,0,0-8-9V82.9h41.35v.43a13.28,13.28,0,0,0-7.52,7.82q-2.16,5.59-2.16,16.87V205q0,16.92,9.68,20.54v.85h-41.35v-.85q9.69-3.41,9.68-20.52v-48.8H948.41V205q0,17.22,9.26,20.52v.85H916.74v-.85Q926,222.08,926,205Z" transform="translate(-32.03 -47.8)"/><path class="cls-1" d="M1147.16,195.19,1184,101.3c1.47-4.21,2.21-7.34,2.21-9.41q0-6.31-6.31-8.56V82.9H1214l47.65,118.78c.56,1.56,1.18,3.08,1.84,4.57a42.07,42.07,0,0,0,2.06,4,55,55,0,0,0,3.57,6.16q3.38,5,11.05,9v.85H1236v-.85q7.58-3.08,7.58-7.22c0-2.19-.89-5.17-2.67-8.92l-13.72-37h-54.27l-12.72,35.32-1.29,4.25L1158,216q.63,6.9,7.89,9.45v.85h-39.35v-.85a25.78,25.78,0,0,0,4-2.44l1.26-1L1134,220a38.34,38.34,0,0,0,5.48-7.23l2-4,2.21-4.89Zm30.92-39h42.57l-20.91-54.95Z" transform="translate(-32.03 -47.8)"/><path class="cls-1" d="M1292.82,197.73,1305,105.45l.6-4.68a35.54,35.54,0,0,0,.66-5.57q0-8-7.58-11.87V82.9h38a39.94,39.94,0,0,0,2.31,9.45l40.88,96.57,36.7-94.33a39.59,39.59,0,0,0,2.53-11.69h37.27v.43a10,10,0,0,0-4.84,4.17,17,17,0,0,0-1.79,8.13l.32,1.61.11,2.78,14,103.67a81,81,0,0,0,1.57,10.05,17.62,17.62,0,0,0,3.06,6.75,31.33,31.33,0,0,0,6.63,5.43l-.43.42h-41.66v-.85q8.42-2.76,8.42-13.07l-.27-5.21-.18-3.72-11.38-99.3L1381.67,229l-5.79-4.46a46.63,46.63,0,0,1-4.73-5.41q-3.36-4.26-7.15-13.28l-42.72-101.76-12.94,100.06a32.45,32.45,0,0,1-.42,6.49l.1,3a8.15,8.15,0,0,0,.43,2.66,9.87,9.87,0,0,0,1.78,4.15,17,17,0,0,0,5.69,5.1v.85H1281v-.85a22.12,22.12,0,0,0,7.85-10.58A106.1,106.1,0,0,0,1292.82,197.73Z" transform="translate(-32.03 -47.8)"/><path class="cls-1" d="M1497.72,204.53V108.87a71.34,71.34,0,0,0-1.58-16.6,12.43,12.43,0,0,0-8.1-8.94V82.9h69a8.2,8.2,0,0,1,3.36.54,30.52,30.52,0,0,0,6.74-1.7h.42v25.41h-.42a23.75,23.75,0,0,0-10.63-6.57,55.1,55.1,0,0,0-15.89-1.94h-9.57l-5.58.32-3.47.43-2.52.43v40.93h20.3a22.28,22.28,0,0,1,5.16.42c4.63-.42,7.85-1.06,9.68-1.91h.63v23.29h-.63q-3.8-6.39-18.1-6.38h-17v51.88l16.83,1.49,12.73,1.07H1551l2.42.42a44.85,44.85,0,0,0,17.57-3.4,65.14,65.14,0,0,0,16-9.89h.42l-9.68,28.6H1488v-.85Q1497.72,222,1497.72,204.53Z" transform="translate(-32.03 -47.8)"/><path class="cls-1" d="M1608.93,195.61V101.86l-.43-5.45a17.3,17.3,0,0,0-2.29-7q-2-3.48-7-5.69l.42-.86h50.39q22.73,0,33.88,11t11.15,27.9q-.94,10.76-9.2,20.07t-24.78,14.75L1694,198.27a80.87,80.87,0,0,0,11.57,12.12,181.79,181.79,0,0,0,21.26,16h-22q-8.1,0-13.52-3.13a36.86,36.86,0,0,1-10.47-9.73l-25.17-31.34-19.81-30.37,4.52-.74a26,26,0,0,0,4.31-1.06l4.41-1.5,4.52-1.91a36.05,36.05,0,0,0,14.24-10.92,26.13,26.13,0,0,0,5.52-16.55,21.21,21.21,0,0,0-2.21-10,20.37,20.37,0,0,0-6.73-7.29q-8.12-5.43-19.78-5.43a53.48,53.48,0,0,0-6.26.42,68.27,68.27,0,0,0-7.53,1.39V196a144.07,144.07,0,0,0,.64,15.7,21.2,21.2,0,0,0,2.47,8.51,17.69,17.69,0,0,0,6.36,5.7v.42h-40.71v-.85a12.67,12.67,0,0,0,7.62-9.2Q1608.93,209.66,1608.93,195.61Z" transform="translate(-32.03 -47.8)"/><path class="cls-1" d="M1741.48,195.59V112l-.32-11.59-.32-4-.84-3.93q-1.26-6.07-7.78-9V82.9h40.92v.43a14.88,14.88,0,0,0-6.05,5.32,21.29,21.29,0,0,0-2.57,8.51,133.49,133.49,0,0,0-.63,14.79v83.64a154.66,154.66,0,0,0,.63,16.49,20,20,0,0,0,2.47,8.25,15.42,15.42,0,0,0,6.15,5.16v.85h-40.92v-.85q5.88-2.24,7.57-8.94T1741.48,195.59Z" transform="translate(-32.03 -47.8)"/><path class="cls-1" d="M1784.61,161.06v-5.21a88.31,88.31,0,0,1,5-30.36,69.24,69.24,0,0,1,39.49-40.83,83.14,83.14,0,0,1,31.4-5.69q17.85,0,38.75,6.17V109.7Q1879.73,97.26,1858,97.26a45.91,45.91,0,0,0-14.52,2.13,37.7,37.7,0,0,0-12.21,6,47.72,47.72,0,0,0-16.62,19.78,80.2,80.2,0,0,0-4.11,12.38,56.92,56.92,0,0,0-1.68,13.77,69,69,0,0,0,3.79,22.33,60.5,60.5,0,0,0,4.63,10.37,52.43,52.43,0,0,0,6.63,9.2,56.17,56.17,0,0,0,17.88,13.4,54.05,54.05,0,0,0,24.1,5.31,70,70,0,0,0,21.25-3.48,98.91,98.91,0,0,0,11.15-4.38,110.73,110.73,0,0,0,11.57-6.28h.64l-11.16,25.43a97.48,97.48,0,0,1-35.77,6.58,95.56,95.56,0,0,1-19-1.92l-9-2.34a69.92,69.92,0,0,1-9.15-3.29,70.81,70.81,0,0,1-28.83-22.65,69.89,69.89,0,0,1-9.26-17.65A60.7,60.7,0,0,1,1784.61,161.06Z" transform="translate(-32.03 -47.8)"/><path class="cls-1" d="M1931.59,195.19l36.83-93.89c1.47-4.21,2.21-7.34,2.21-9.41q0-6.31-6.32-8.56V82.9h34.09l47.66,118.78q.84,2.34,1.84,4.57a44.54,44.54,0,0,0,2,4,55,55,0,0,0,3.58,6.16q3.38,5,11,9v.85h-44.19v-.85q7.58-3.08,7.58-7.22c0-2.19-.9-5.17-2.68-8.92l-13.71-37h-54.27l-12.72,35.32-1.3,4.25-.86,4.14q.63,6.9,7.89,9.45v.85H1911v-.85a26.26,26.26,0,0,0,4-2.44l1.26-1,2.21-2.13a38.32,38.32,0,0,0,5.47-7.23l2-4,2.21-4.89Zm30.93-39h42.57l-20.91-54.95Z" transform="translate(-32.03 -47.8)"/><path class="cls-1" d="M2083.52,200V108q0-11.61-2.58-16t-8.78-8.67V82.9h31.66q0,1.93,6.63,10.32l78.7,100.48V108.45a49,49,0,0,0-2-15q-1.93-6-9.52-10.11V82.9h38v.43a31.55,31.55,0,0,0-6.57,5.17,18.18,18.18,0,0,0-3.53,7.3,52.74,52.74,0,0,0-1.36,13.53l.42,123.82q-10.39-2.88-16.43-8.05a92.52,92.52,0,0,1-11.91-12.54l-77.19-99.07V200q0,8.94,1.26,13.19a17.33,17.33,0,0,0,3.37,6.65,40.19,40.19,0,0,0,6.73,5.69v.85h-38.29v-.85a18.56,18.56,0,0,0,8.94-9.15l.84-2.87,1-5a41,41,0,0,0,.48-5C2083.5,202,2083.52,200.81,2083.52,200Z" transform="translate(-32.03 -47.8)"/><path class="cls-1" d="M32,47.8V196.74c0,102.15,75.22,159.33,141.09,183.93,65.87-24.6,141.09-81.78,141.09-183.93V47.8Z" transform="translate(-32.03 -47.8)"/><rect class="cls-2" x="13.5" y="13.5" width="123.59" height="135.01"/><path class="cls-3" d="M143.69,326.23l-13.52,9.21,4.38-15.76,10.16-36.62L117.13,260.6,104.07,250h49.86l13.29-33.56,1.9-4.82V204.3H45.87c3.46,84.71,63.92,135,123.25,160.14V308.91Z" transform="translate(-32.03 -47.8)"/><path class="cls-1" d="M129.69,182.18l5.28-4.69a7.7,7.7,0,0,1,2.65-9.09.49.49,0,0,0,.21-.38l2.43-25.2a.57.57,0,0,0-.84-.55l-2.18,1.19-2.15,22.74s-6.24,1.3-6.88,9.15h0Z" transform="translate(-32.03 -47.8)"/><path class="cls-4" d="M166.47,155.9" transform="translate(-32.03 -47.8)"/><polygon class="cls-1" points="116.94 105.49 116.93 105.48 116.91 105.69 116.94 105.49"/><path class="cls-1" d="M150.6,176.79l.11,0c.15,4.1,1.37,5.57,1.37,5.57l2.74-.45c.3-5,5.28-4.69,5.28-4.69l-.4-9.68a3.09,3.09,0,0,0-.72-1.87l-10-12-.42,5.14L157,169.4S151.64,170.07,150.6,176.79Z" transform="translate(-32.03 -47.8)"/><path class="cls-1" d="M96.13,142.3c-5.18-10.9-17-26.69-10.7-45.38,4.88-14.44,17.8-15.32,28-13.32a33,33,0,0,0-31.66.78A25.08,25.08,0,0,0,76,89.12a43.18,43.18,0,0,0-2.77,3.94c-6.85,12-1.86,28.18-.15,34.63.1.38.18.8.27,1.23,1.51,5.32,2.75,10.6,2.5,15.78-.69,14.44-8.75,39.43-19.58,51.61H86.59C98.73,180.49,102.86,156.45,96.13,142.3Z" transform="translate(-32.03 -47.8)"/><path class="cls-1" d="M118.32,103.62c-6.94-1-10.74-10.67-11.65-13.28-6.73,14.87,3.91,17.06,6.25,17.36a.53.53,0,0,1,.44.57c0,1,.1,1.81.15,2.71h0l.51,4.7c1.56,8.77,5.64,9.91,7.82,9.77,1.29-.08,1.46-1.34,1.48-1.89,0-.88,0-1.81.05-2.72C116.73,117.36,118.32,103.62,118.32,103.62Z" transform="translate(-32.03 -47.8)"/><path class="cls-3" d="M131.13,154.65s-23.45,6.93-27.63,20.3a99,99,0,0,1-9.65,21.36h9a104.63,104.63,0,0,0,8.6-16.59c5.42-12.95,19.33-19.42,19.33-19.42Z" transform="translate(-32.03 -47.8)"/><path class="cls-3" d="M166.48,168.15c-2.85-4.44-13.08-20.34-15.9-24.89l-1.65,10.31,10,12.05a3.09,3.09,0,0,1,.72,1.87l.4,9.68s-5-.27-5.28,4.69l-2.74.45s-1.22-1.47-1.37-5.57l-4.9,2.56s-1.21,11.69,1.45,15c.11.14,13.84-12.9,16.85-15.75a2.92,2.92,0,0,0,.81-1.36l1.91-6.52A3,3,0,0,0,166.48,168.15Z" transform="translate(-32.03 -47.8)"/><path class="cls-3" d="M141.07,133.17,122,142a.54.54,0,0,1-.79-.45c0-1.8-.88-7.65-9.93-13.91s-8.84-14.77-8.53-17.27a.6.6,0,0,1,.78-.5,23.56,23.56,0,0,0,4.23,1,2.38,2.38,0,0,1,2,1.13c1.8,2.86,1.24,9.62,1.24,9.62a1.72,1.72,0,0,0,.4,1.31l4.73,5.55a.58.58,0,0,0,.39.19l7.09.64c2.44-.61,3.45-2.1,3.36-4.83L125.4,94.56,121,85.65a5.34,5.34,0,0,1,3.51-4.05c-1.22-1.18-4.06-1.76-6-1.37l0-.06c-10.83-11.57-33-9.93-42.64-3.1C59.34,88.69,64.3,98.16,51.73,114.25a10.94,10.94,0,0,0,8.54-2.4c-5.6,10.59-4.06,18.39-11.87,26.84,0,0,6.34.92,12.86-5.23a39.65,39.65,0,0,1-3.11,7.61C48.37,158.68,54.57,168,54.57,168s2.33-10.85,13.57-19.76c.2-.17.32-.33.51-.5-1.5,12.25-5.85,33.22-22.82,48.59H56.31c10.83-12.18,18.89-37.17,19.58-51.61.25-5.18-1-10.46-2.5-15.78-.09-.43-.17-.85-.27-1.23-2.18-8.26-8.8-33.48,10.08-43.82a31.91,31.91,0,0,1,30.2-.23,9.2,9.2,0,0,1,7-.93c-1.65,1-3.21,2.68-3.28,3.9l4.72,8s2,18.7,1.52,29c0,.55-.19,1.81-1.48,1.89-2.69.18-8.36-1.4-8.48-17.22a.52.52,0,0,0-.46-.53c-2.38-.31-13.05-2.54-6.15-17.54a.53.53,0,0,0-.65-.73c-4.17,1.33-17.83,7.14-10.67,24.73,3.95,9.72,19.06,14.24,14.78,34.09L104,161.55l35.45-19.28a.57.57,0,0,1,.84.55L137.83,168a.49.49,0,0,1-.21.38,7.7,7.7,0,0,0-2.65,9.09l-5.28,4.69-1.44-6.84-5.14.64s-3.17,11,1.3,17.47L141,177.71A4.44,4.44,0,0,0,142.4,175l4.2-37.87A3.9,3.9,0,0,0,141.07,133.17Z" transform="translate(-32.03 -47.8)"/><path class="cls-2" d="M177.11,204.3v8.17l1.38,4.3.09.29,13.34,32.88,31.59-.12,16.63-.07-12.76,10.66-27,22.57,10.23,35.94,4.33,15.59-13.55-9.05-10-6.7-14.23-9.5v55.16c36.45-15.48,73.39-40.29,97.27-76.84,15-23,24.73-50.58,26.06-83.28Z" transform="translate(-32.03 -47.8)"/><polygon class="cls-2" points="108.29 273.48 108.27 273.55 140.81 251.44 140.82 227.24 108.29 273.48"/><polygon class="cls-3" points="155.62 207.73 140.81 170.69 140.82 227.24 155.62 207.73"/><polygon class="cls-3" points="161.77 232.84 191.51 208.01 140.82 227.24 161.77 232.84"/><polygon class="cls-3" points="140.81 251.47 172.98 273.26 140.82 227.24 140.81 251.47"/><polygon class="cls-2" points="125.95 208.23 140.82 227.24 140.81 170.53 125.95 208.23"/><polygon class="cls-2" points="88.89 208.15 88.89 208.15 119.5 233.09 140.82 227.24 88.89 208.15"/><rect class="cls-3" x="145.08" y="13.5" width="123.59" height="135.01"/><path class="cls-1" d="M293.3,196.32c-2.3-1.81-5.71-3.1-11-3.5-4.1-.37-8.48-5.16-8.84-9.13l-.26-2.89s-6.89,3.8-9.08.84-.66-8.4-.66-8.4-3.37-.49-5,.87-1,4.47-1,4.47l-4.36,2.66-5.91-2.86c-2-1.69-1.71-6.58-1.54-9.15a8.3,8.3,0,0,1,5.33-7.11l4.74-1.85,1-4.66,8.58-.35a8.7,8.7,0,0,1,6.26,2.29l4.45,4.13-1.48-6.28a8,8,0,0,1,1-6.11,16.24,16.24,0,0,0,2.83-4.53c1.32-3,.27-7.4.14-11.69-.24-8.06,4.16-12.49,4.16-12.49l5.39-1.36,1.94-8.79c-2.85,2-4.95,4.33-7.29,3.47l-2.75-2.42c2.5-4.31,5.7-10.85,10.31-9.46s5.95.46,6.91-2.29h-8.71a8.75,8.75,0,0,1-4.13-1L273.71,93l-4.63,4.19-5.66.07.47,5.46,3.12,3.51,0,7.1-5.18-3.58-4.69-.73L249.76,107l-4.27-4.8,3-7.53L255,90.48,250.88,87l-2.42-6.53s-1,5.13-2.89,7a30.11,30.11,0,0,1-3.83,3.13l-6.05-4.36s-7,1.7-13.43-1.33a31.41,31.41,0,0,1-9-7.7l-1.6-4.42-3.47-6.26-7.92.83-4.27.2,1.48,6L192,78.48a8.63,8.63,0,0,1-5.54,2.15l-5.55.13,1.68,4.12,10.38-1a9,9,0,0,1,2.32.09l8.3,1.42a52,52,0,0,0,2.31,13.84c2.27,7.09,5.45,13,4.41,21.54s-3.86,11.27-1.86,19.42a89.62,89.62,0,0,0,5.79,15.87l1.88-5.8,11.71,16.79a8.2,8.2,0,0,1,1.26,2.87l.86,3.84a8.33,8.33,0,0,0,5.1,5.89l9.23,3.67,1.25.39c3.12.7,17.13,3.9,19,5l7.38,4.31c.66.38,3.87,2.37,5.7,3.31Z" transform="translate(-32.03 -47.8)"/></svg>